PathFileType	4	(X/Y/Z)	C:/Users/beibeiliu/ov580/test_trc/User3\sequence.43_training_dense_right.trc
DataRate	CameraRate	NumFrames	NumMarkers	Units	OrigDataRate	OrigDataStartFrame	OrigNumFrames
120	120	14	19	mm	120	61	121
Frame#	Time	ThumbCMC			ThumbMCP			ThumbIP			ThumbTip			IndexMCP			IndexPIP			IndexTip			MiddleMCP			MiddlePIP			MiddleTip			RingMCP			RingPIP			RingTip			PinkyMCP			PinkyPIP			PinkyTip			BackHand1			BackHand2			BackHand3	
		X0	Y0	Z0	X1	Y1	Z1	X2	Y2	Z2	X3	Y3	Z3	X4	Y4	Z4	X5	Y5	Z5	X6	Y6	Z6	X7	Y7	Z7	X8	Y8	Z8	X9	Y9	Z9	X10	Y10	Z10	X11	Y11	Z11	X12	Y12	Z12	X13	Y13	Z13	X14	Y14	Z14	X15	Y15	Z15	X16	Y16	Z16	X17	Y17	Z17	X18	Y18	Z18	
60	0.5	212.187	27.9621	21.6438	210.438	36.4718	-6.77932	211.674	45.2115	-35.2403	208.132	52.4017	-57.8933	193.23	-1.75711	-52.8071	185.59	9.43143	-79.3499	172.896	20.4997	-99.8344	173.354	-15.7398	-47.9043	157.891	-2.33258	-73.8319	130.069	26.3209	-81.8126	152.637	-24.8475	-38.023	137.416	-17.0554	-57.0561	118.472	3.11066	-70.8132	136.384	-28.234	-12.1426	122.504	-22.4087	-34.9828	104.061	-10.9686	-44.9293	177.139	-30.2895	14.1897	183.472	-26.542	44.6562	206.785	-11.851	17.5349	
61	0.508333	218.31	13.7277	19.5564	226.814	26.1762	-4.89368	228.754	31.8647	-35.3215	222.966	35.55	-55.2276	198.479	-10.9365	-47.6648	188.228	-2.54969	-76.8968	182.437	11.7995	-96.1375	172.025	-26.1952	-44.4087	164.529	-17.1766	-76.5512	148.468	3.71156	-98.3724	154.845	-24.7469	-36.0481	141.557	-18.7815	-55.8732	124.431	-1.12169	-73.6603	135.697	-24.4944	-17.2521	120.879	-16.3779	-30.3288	108.14	3.10394	-49.9251	173.006	-33.9608	14.6997	179.716	-31.069	45.2818	208.946	-19.7891	19.7598	
62	0.516667	227.711	3.70374	23.0704	234.317	13.8248	-3.74941	236.242	18.5752	-36.2986	230.241	24.0353	-56.0987	204.541	-24.8438	-43.9944	200.566	-19.9687	-72.079	196.097	-3.63561	-98.0898	179.98	-37.8334	-47.5705	175.52	-30.9766	-74.5126	159.136	-11.2754	-101.695	158.461	-29.4059	-32.7685	149.011	-16.8543	-60.0008	135.273	8.48491	-73.7559	139.274	-24.871	-14.373	129.884	-10.01	-34.8132	126.913	14.3151	-47.1003	178.146	-39.0162	18.9351	181.068	-36.7776	49.9286	210.157	-28.535	21.8342	
63	0.525	234.458	-1.49112	24.3576	239.703	8.55425	-3.36261	238.814	14.6966	-33.2985	220.332	18.3815	-54.9766	214.424	-36.0829	-39.1776	217.896	-32.607	-73.2605	203.972	-11.3335	-91.6233	190.437	-44.7546	-41.6455	185.631	-39.4471	-71.035	169.589	-6.51024	-92.3008	167.94	-34.1101	-31.5265	157.173	-18.107	-55.6557	152.093	12.3563	-59.423	149.836	-27.5108	-15.9687	145.204	-11.8767	-34.5344	144.676	17.5104	-39.5886	183.869	-46.0333	17.6305	187.532	-40.0164	51.4836	218.855	-33.5892	24.5542	
64	0.533333	235.588	-1.01187	31.9473	239.656	11.1543	-4.62631	231.205	18.9279	-30.1203	204.508	15.1718	-44.7212	225.894	-37.7432	-35.4568	221.317	-29.3082	-71.5175	208.288	-0.352768	-72.488	202.892	-45.3291	-42.3415	191.046	-33.0918	-70.321	184.339	5.59275	-66.2603	178.011	-37.6914	-33.1397	164.823	-14.2808	-55.115	167.289	12.6141	-44.2246	160.924	-31.7077	-19.2437	154.023	-10.6509	-36.5747	155.612	17.0676	-28.2626	188.559	-48.6874	17.5094	191.516	-45.2484	50.7049	222.297	-36.4718	28.8457	
65	0.541667	233.85	3.0135	29.8967	229.662	17.4874	-1.2259	217.456	23.7558	-28.5153	191.274	18.1239	-35.9148	223.55	-29.863	-38.5612	211.383	-11.194	-65.4912	207.124	13.6013	-47.7689	198.681	-37.6816	-47.5045	190.416	-14.2174	-65.2174	190.648	12.6352	-37.0461	182.404	-31.981	-37.484	172.021	-6.60462	-50.5164	177.185	14.4877	-24.6266	164.505	-31.0563	-22.9566	156.785	-6.07615	-34.6843	163.012	13.4104	-17.818	191.28	-47.7804	19.2132	193.943	-43.2391	50.4327	222.582	-37.8923	26.6454	
66	0.55	232.618	4.49775	30.1614	225.668	21.768	0.648775	208.789	26.1534	-29.1148	183.347	16.8317	-29.7796	218.68	-18.6419	-42.1335	212.482	8.54917	-56.1195	211.013	20.4744	-21.1899	198.943	-24.61	-43.5148	189.312	6.1116	-51.3638	194.089	9.54321	-10.3212	179.437	-23.8199	-38.2376	171.201	6.31963	-37.6684	180.884	13.0258	-9.1368	164.58	-28.2533	-22.781	159.464	-4.01671	-31.4964	164.896	10.999	-2.62988	189.153	-49.5514	15.5096	190.766	-44.0161	47.8042	222.359	-35.2515	29.9534	
67	0.558333	234.407	4.33389	32.4917	226.531	22.5506	1.68396	205.776	24.7728	-23.3331	181.842	19.9409	-26.4989	217.206	-13.0697	-38.3125	211.567	18.3781	-42.0754	210.671	19.2269	-8.49377	199.145	-11.3736	-40.4112	189.605	16.3113	-35.3233	196.438	8.9441	2.67856	178.692	-18.9026	-29.3646	173.572	12.24	-27.7594	183.207	11.8402	4.45757	161.307	-21.8654	-19.2371	164.558	7.85349	-19.9857	169.992	9.92153	8.10413	189.866	-47.1747	20.0761	188.454	-44.718	53.0052	224.276	-36.0126	29.3193	
68	0.566667	233.285	4.61069	35.2784	227.315	22.9982	6.46822	207.115	30.8264	-21.6799	180.465	21.8004	-24.3624	216.714	-12.3246	-32.875	207.497	18.9349	-37.9905	213.263	20.9595	-4.25481	194.021	-8.60585	-35.899	188.819	19.168	-26.5407	196.556	8.40957	11.018	176.129	-13.3259	-25.3251	175.059	16.3421	-18.4321	187.161	11.9857	15.0314	162.794	-15.319	-15.5131	164.47	9.50694	-12.3338	175.818	7.12389	18.8417	190.777	-46.0514	22.514	188.722	-43.632	52.1208	219.032	-36.9179	32.2588	
69	0.575	227.151	9.29951	34.3265	221.506	28.19	7.56388	200.348	29.8888	-20.9424	177.956	22.2362	-23.4869	219.273	-5.13927	-35.5629	205.365	22.1928	-39.1583	205.323	26.3462	-6.33064	197.346	-9.98801	-34.1928	185.973	19.6467	-28.8388	189.308	9.26337	9.84637	178.257	-15.659	-22.122	171.149	13.7575	-17.4131	178.484	10.1922	17.3977	165.849	-15.3704	-12.781	157.772	7.88744	-4.32545	169.674	4.96923	23.0967	193.818	-45.8514	22.671	198.301	-39.6093	57.4135	225.927	-26.6645	37.9723	
70	0.583333	217.22	28.6896	35.4281	204.299	39.23	3.91072	189.023	37.1953	-25.3391	172.382	16.3107	-33.4115	224.276	2.42945	-38.8958	202.159	20.1018	-51.1119	192.452	27.7979	-17.3966	209.664	-14.8243	-37.9082	186.63	6.55531	-46.269	180.709	7.29996	-6.81569	193.056	-21.3933	-24.7281	168.813	-2.60797	-26.4086	174.764	6.55418	6.68963	178.381	-28.154	-14.2816	160.935	-7.72831	-5.72264	170.771	-1.52411	18.0417	215.649	-36.3178	22.9003	215.481	-30.051	53.7846	235.86	-7.07602	35.7112	
71	0.591667	206.439	33.3972	26.1567	190.246	38.0873	-3.11623	182.557	25.2887	-32.4341	177.11	4.63403	-49.4888	244.87	13.0996	-37.4161	228.249	6.55617	-65.3779	199.899	9.59075	-52.6525	245.393	-8.02817	-42.4319	224.479	-12.609	-64.2735	194.017	-10.3851	-33.7579	227.896	-29.0582	-30.1487	200.989	-35.0984	-38.7493	184.836	-18.7571	-10.0387	217.856	-43.84	-13.3434	192.264	-38.7391	-20.2224	183.527	-26.6095	3.85654	246.779	-20.145	26.184	237.772	-12.0543	57.216	238.244	16.2557	34.5072	
72	0.6	215.213	19.9403	20.2117	205.496	16.1506	-14.8872	201.42	8.79167	-43.2907	200.735	-7.60723	-62.4865	272.906	8.16554	-28.6108	278.351	1.57456	-64.4977	251.111	-12.5325	-73.9177	285.764	-12.3008	-30.6283	284.517	-26.0687	-60.3981	248.34	-36.8616	-65.1035	270.139	-37.0205	-23.8649	249.75	-51.2076	-45.8022	219.449	-51.628	-30.6331	260.364	-52.598	-9.12224	235.372	-59.433	-24.7687	210.437	-52.2467	-9.66265	269.788	-18.5049	29.5238	257.831	-14.6748	54.2591	252.235	14.6349	27.1646	
73	0.608333	238.855	12.1446	13.2083	230.796	11.6567	-19.2403	233.454	2.72011	-47.1856	236.967	-9.33828	-67.7645	303.614	5.04849	-21.5851	316.533	5.05012	-52.6963	303.689	-10.3048	-75.7876	315.902	-17.3436	-19.0594	324.747	-28.5905	-45.9856	298.911	-45.2111	-70.3042	298.605	-42.466	-16.8428	285.411	-61.7319	-41.8965	252.219	-62.2399	-41.4924	287.005	-60.9381	-4.33817	267.882	-71.0433	-23.8805	237.944	-62.919	-22.0838	287.923	-24.336	32.1989	268.845	-20.0069	58.9411	268.966	7.6107	33.0262	
